<svg version="1.0" viewBox="0 0 200 200" xml:space="preserve" xmlns="http://www.w3.org/2000/svg"><path d="M170.6 183.1h-58.4l-1.1-15.3c0-2.3.1-3.8 1.5-4.4.7-.3 1.6-.2 2.9 0 1 .2 2.3.4 4.1.4 7.6 0 13.2-7.7 13.2-14.6 0-6.6-5.9-14.7-13.2-14.7-1.8 0-3.1.2-4.1.4-1.3.2-2.1.3-2.9 0-1.4-.6-1.5-2-1.5-4.3l1.1-15.4H132c3.4 0 4.3-.1 4.9-.6.2-.2.2-.4-.4-2-.5-1.3-1.2-3.2-1.2-5.6 0-5.9 4.8-10.8 10.8-10.8 5.9 0 10.8 4.8 10.8 10.8 0 2.4-.7 4.3-1.2 5.6-.6 1.6-.6 1.8-.4 2 .6.5 1.5.6 5 .6h19.9v58.3c0 .4.3 5.2-2.1 7.7-1.8 1.5-5.1 1.9-7.5 1.9zm-56.1-2.5h56.1c2.7 0 4.8-.5 5.7-1.4 1.4-1.4 1.4-4.6 1.4-5.8v-55.9h-17.4c-3.7 0-5.2-.1-6.6-1.2-1.7-1.4-1-3.2-.4-4.8.5-1.2 1.1-2.8 1.1-4.7 0-4.6-3.7-8.3-8.3-8.3-4.5 0-8.3 3.7-8.3 8.3 0 2 .6 3.4 1.1 4.7.6 1.6 1.3 3.4-.4 4.8-1.3 1.1-2.8 1.2-6.6 1.2h-17.5l-.9 13c0 1.2.1 1.7.1 1.9.3 0 .7-.1 1.3-.2 1.1-.2 2.5-.4 4.5-.4 8.8 0 15.7 9.2 15.7 17.2 0 8.1-6.7 17.1-15.7 17.1-2 0-3.5-.2-4.5-.4-.6-.1-1.1-.2-1.3-.2 0 .2-.1.8-.1 2l1 13.1z" fill="#fffcfc" class="fill-000000"></path><path d="M164.7 109.8c-2.3 0-3.7-.1-4.3-1.5-.4-.8-.2-1.7 0-2.9.2-1 .4-2.3.4-4.1 0-7.5-7.7-13.2-14.6-13.2-6.6 0-14.7 5.9-14.7 13.2 0 1.8.2 3.1.4 4.1.2 1.1.3 2 0 2.9-.6 1.4-2 1.5-4.3 1.5l-15.4-1.1V88.9c0-3.4-.1-4.3-.6-4.9-.1-.2-.2-.2-.3-.2-.4 0-1 .3-1.7.5-1.3.5-3.2 1.2-5.6 1.2-5.9 0-10.8-4.8-10.8-10.8 0-5.9 4.8-10.8 10.8-10.8 2.4 0 4.3.7 5.6 1.2.7.3 1.3.5 1.7.5.1 0 .2 0 .3-.2.5-.6.6-1.5.6-4.9V40.8H171.4c1.8 0 5 .3 6.8 2.1 2.4 2.4 2.1 7.9 2.1 8.5v57.3l-15.6 1.1zm-50.1-3.4 13 .9c1.1 0 1.7-.1 1.9-.1 0-.3-.1-.9-.2-1.3-.2-1.1-.4-2.5-.4-4.5 0-8.8 9.2-15.7 17.2-15.7 8.1 0 17.1 6.7 17.1 15.7 0 2-.2 3.5-.4 4.5-.1.5-.2 1.1-.2 1.3.2 0 .8.1 2 .1l13-.9V51.3c.1-2-.1-5.4-1.3-6.6-.9-.9-2.7-1.4-5-1.4h-56.6v17.4c0 3.7-.1 5.2-1.2 6.6-.6.7-1.3 1.1-2.2 1.1-.8 0-1.7-.3-2.6-.7-1.2-.5-2.8-1.1-4.7-1.1-4.6 0-8.3 3.7-8.3 8.3 0 4.5 3.7 8.2 8.3 8.2 2 0 3.4-.6 4.7-1.1 1-.4 1.8-.7 2.6-.7.9 0 1.6.4 2.2 1.1 1.1 1.3 1.2 2.8 1.2 6.6v17.4z" fill="#fffcfc" class="fill-000000"></path><path d="M49.2 108.8c-1.2 0-2.4-.2-3.6-.6-5.6-2-8.5-8.1-6.6-13.7.8-2.3 2.1-3.8 3-4.9 1.1-1.3 1.2-1.5 1-1.8-.4-.7-1.2-1.1-4.5-2.2L19.7 79l19.4-55c.1-.4 1.4-5 4.5-6.5.7-.3 1.6-.5 2.6-.5 2.8 0 6 1.3 6.1 1.4l54.1 19.1-4.1 14.8c-.8 2.2-1.3 3.5-2.9 3.6h-.2c-.8 0-1.6-.4-2.5-.9-.9-.5-2-1.1-3.8-1.7-1.2-.4-2.4-.6-3.7-.6-5.7 0-11.6 4.4-13.6 10-1.1 3.2-1 7.1.4 10.7 1.4 3.7 4 6.4 7.2 7.5 1.7.6 3 .8 4 1 1.1.2 2 .4 2.7 1 1.1 1 .7 2.4 0 4.5l-6.1 14.2L65.1 95c-2.1-.8-3.5-1.2-4.2-1.2-.2 0-.4 0-.6.1-.3.1-.3.3-.3 2 0 1.4.1 3.4-.7 5.7-1.5 4.3-5.6 7.2-10.1 7.2zM23 77.4l16.4 5.8c3.5 1.2 4.9 1.8 5.8 3.3 1.1 1.9-.1 3.4-1.3 4.7-.9 1-1.9 2.3-2.6 4.1-1.5 4.3.7 9 5 10.5.9.3 1.8.5 2.7.5 3.5 0 6.6-2.2 7.8-5.5.7-1.9.6-3.4.6-4.8 0-1.7-.1-3.6 1.9-4.4 1.6-.6 2.9-.3 6.6 1l16.5 5.8 5.2-12c.4-1.1.5-1.6.5-1.8-.3-.1-.8-.2-1.3-.3-1.1-.2-2.5-.4-4.4-1.1-3.9-1.4-7-4.6-8.7-9-1.6-4.1-1.7-8.7-.4-12.4 2.4-6.7 9.2-11.7 16-11.7 1.5 0 3.1.3 4.5.8 1.9.7 3.2 1.4 4.1 1.9.4.2.9.5 1.2.6.1-.2.4-.7.8-1.9l3.5-12.5-52-18.3c-.1 0-2.9-1.2-5.2-1.2-.6 0-1.2.1-1.5.3-1.7.8-2.9 3.9-3.2 5L23 77.4zM46.8 183.1c-1.8 0-5-.3-6.8-2.1-2.4-2.4-2.1-7.9-2.1-8.5v-57.3l15.3-1.1c2.3 0 3.8.1 4.4 1.5.4.8.2 1.7 0 2.9-.2 1-.4 2.3-.4 4.1 0 7.5 7.7 13.2 14.6 13.2 6.6 0 14.7-5.9 14.7-13.2 0-1.8-.2-3.1-.4-4.1-.2-1.1-.3-2 0-2.9.6-1.4 2-1.5 4.3-1.5l15.4 1.1V135c0 3.4.1 4.3.6 4.9.1.2.2.2.3.2.4 0 1-.3 1.7-.5 1.3-.5 3.2-1.2 5.6-1.2 5.9 0 10.8 4.8 10.8 10.8 0 5.9-4.8 10.8-10.8 10.8-2.4 0-4.3-.7-5.6-1.2-.7-.3-1.3-.5-1.7-.5-.1 0-.2 0-.3.2-.5.6-.6 1.5-.6 4.9v19.9H47.5c.1-.2-.2-.2-.7-.2zm-6.4-65.6v55.1c-.1 2 .1 5.4 1.3 6.6.9.9 2.7 1.4 5 1.4h56.6v-17.4c0-3.7.1-5.2 1.2-6.6.6-.7 1.3-1.1 2.2-1.1.8 0 1.7.3 2.6.7 1.2.5 2.8 1.1 4.7 1.1 4.6 0 8.3-3.7 8.3-8.3 0-4.5-3.7-8.2-8.3-8.2-2 0-3.4.6-4.7 1.1-1 .4-1.8.7-2.6.7-.9 0-1.6-.4-2.2-1.1-1.1-1.3-1.2-2.8-1.2-6.6v-17.5l-13-.9c-1.1 0-1.7.1-1.9.1 0 .3.1.9.2 1.3.2 1.1.4 2.5.4 4.5 0 8.8-9.2 15.7-17.2 15.7-8.1 0-17.1-6.7-17.1-15.7 0-2 .2-3.5.4-4.5.1-.5.2-1.1.2-1.3-.2 0-.8-.1-2-.1l-12.9 1z" fill="#fffcfc" class="fill-000000"></path></svg>